<svg id="Capa_1" data-name="Capa 1" xmlns="http://www.w3.org/2000/svg" viewBox="0 0 313.7 285.8"><defs><style>.cls-1{fill:#009dca;}.cls-2{opacity:0.5;}.cls-3{fill:#fff;}.cls-4{fill:#005d96;}</style></defs><title>ICONOS</title><rect class="cls-1" x="57.2" y="114.9" width="56.1" height="136.05"/><rect class="cls-1" x="210.5" y="114.9" width="56.1" height="136.05"/><rect class="cls-1" x="96.8" y="73.9" width="131.7" height="17.28"/><g class="cls-2"><rect class="cls-1" x="139.8" y="199.1" width="20.1" height="47.51"/><rect class="cls-1" x="163.6" y="199.1" width="20.1" height="47.51"/><rect class="cls-1" x="122.9" y="106.3" width="17.3" height="19.44"/><rect class="cls-1" x="153.1" y="106.3" width="17.3" height="19.44"/><rect class="cls-1" x="183.3" y="106.3" width="17.3" height="19.44"/><rect class="cls-1" x="122.9" y="136.5" width="17.3" height="19.44"/><rect class="cls-1" x="153.1" y="136.5" width="17.3" height="19.44"/><rect class="cls-1" x="183.3" y="136.5" width="17.3" height="19.44"/><rect class="cls-1" x="122.9" y="166.7" width="17.3" height="19.44"/><rect class="cls-1" x="153.1" y="166.7" width="17.3" height="19.44"/><rect class="cls-1" x="183.3" y="166.7" width="17.3" height="19.44"/></g><rect class="cls-3" x="68" y="125.7" width="8.6" height="32.24"/><rect class="cls-3" x="89.6" y="125.7" width="8.6" height="32.24"/><rect class="cls-3" x="68" y="164.7" width="8.6" height="32.24"/><rect class="cls-3" x="89.6" y="164.7" width="8.6" height="32.24"/><rect class="cls-3" x="68" y="203.6" width="8.6" height="32.24"/><rect class="cls-3" x="89.6" y="203.6" width="8.6" height="32.24"/><rect class="cls-3" x="225.6" y="125.7" width="8.6" height="32.24"/><rect class="cls-3" x="247.2" y="125.7" width="8.6" height="32.24"/><rect class="cls-3" x="225.6" y="164.7" width="8.6" height="32.24"/><rect class="cls-3" x="247.2" y="164.7" width="8.6" height="32.24"/><rect class="cls-3" x="225.6" y="203.6" width="8.6" height="32.24"/><rect class="cls-3" x="247.2" y="203.6" width="8.6" height="32.24"/><rect class="cls-4" x="129.9" y="195.7" width="64" height="8.73"/><circle class="cls-4" cx="161.7" cy="62.2" r="25.6"/><rect class="cls-3" x="148.3" y="58.5" width="29.2" height="7.3"/><rect class="cls-3" x="159.3" y="47.6" width="7.3" height="29.21"/></svg>