<svg id="Capa_1" data-name="Capa 1" xmlns="http://www.w3.org/2000/svg" viewBox="0 0 313.66 285.8"><defs><style>.cls-1{fill:#009dca;}.cls-2{fill:#005d96;}.cls-3{fill:#fff;}</style></defs><title>ICONOS</title><polygon class="cls-1" points="67.47 253.8 183.84 253.66 183.84 73.69 160.59 73.69 91.49 73.69 66.05 73.69 67.47 253.8"/><rect class="cls-2" x="190.47" y="50.38" width="56.15" height="203.42"/><rect class="cls-3" x="72.07" y="82.27" width="41.02" height="50.27"/><rect class="cls-3" x="72.07" y="139.24" width="41.02" height="53.08"/><rect class="cls-3" x="72.07" y="201.02" width="41.02" height="53.08"/><rect class="cls-3" x="120.74" y="82.27" width="58.09" height="50.27"/><rect class="cls-3" x="120.74" y="139.24" width="58.09" height="53.08"/><rect class="cls-3" x="120.74" y="201.02" width="58.09" height="53.08"/><rect class="cls-3" x="196" y="55.37" width="24.59" height="37.87"/><rect class="cls-3" x="196" y="97.39" width="24.59" height="38.87"/><rect class="cls-3" x="196" y="140.42" width="24.59" height="38.87"/><rect class="cls-3" x="196" y="183.44" width="24.59" height="38.87"/><rect class="cls-3" x="196" y="226.47" width="24.59" height="38.87"/><rect class="cls-3" x="225.58" y="55.37" width="16.33" height="37.87"/><rect class="cls-3" x="225.58" y="97.39" width="16.33" height="38.87"/><rect class="cls-3" x="225.58" y="140.42" width="16.33" height="38.87"/><rect class="cls-3" x="225.58" y="183.44" width="16.33" height="38.87"/><rect class="cls-3" x="225.58" y="226.47" width="16.33" height="38.87"/><polygon class="cls-2" points="60.08 254.1 60.08 143.63 189.47 103.15 258.73 134.62 258.73 254.1 60.08 254.1"/><rect class="cls-3" x="138.16" y="196.79" width="47.26" height="46.07"/><rect class="cls-3" x="194.41" y="196.79" width="55.67" height="46.07"/><rect class="cls-3" x="137.95" y="141.78" width="47.26" height="48.47"/><rect class="cls-3" x="194.19" y="141.78" width="55.67" height="48.47"/><rect class="cls-3" x="83.43" y="158.87" width="9" height="9.79"/><rect class="cls-3" x="99.19" y="158.87" width="9" height="9.79"/><rect class="cls-3" x="114.94" y="158.87" width="9" height="9.79"/><rect class="cls-3" x="82.86" y="176.9" width="9" height="9.79"/><rect class="cls-3" x="98.61" y="176.9" width="9" height="9.79"/><rect class="cls-3" x="114.36" y="176.9" width="9" height="9.79"/><rect class="cls-3" x="83.72" y="207.53" width="9" height="9.79"/><rect class="cls-3" x="99.48" y="207.53" width="9" height="9.79"/><rect class="cls-3" x="115.23" y="207.53" width="9" height="9.79"/><rect class="cls-3" x="83.14" y="225.56" width="9" height="9.79"/><rect class="cls-3" x="98.9" y="225.56" width="9" height="9.79"/><rect class="cls-3" x="114.65" y="225.56" width="9" height="9.79"/></svg>