<svg id="Capa_1" data-name="Capa 1" xmlns="http://www.w3.org/2000/svg" viewBox="0 0 319.8 287.5"><defs><style>.cls-1{fill:#009dca;}.cls-2{fill:#fff;}.cls-3{fill:#daeff6;}.cls-4{fill:#005d96;}</style></defs><title>ICONOS</title><path class="cls-1" d="M278.7,173.7v41H258.2a20.5,20.5,0,1,0-40.9,0H172.7V108.2h60.9l23.6,50.1Zm-34-12.3-19.3-40.9H184.5v40.9Z"/><circle class="cls-2" cx="237.7" cy="214.7" r="20.5"/><polygon class="cls-3" points="225.4 120.5 244.7 161.4 184.5 161.4 184.5 120.5 225.4 120.5"/><path class="cls-4" d="M209,92.9v15.3H190.6V92.9a7.8,7.8,0,0,1,7.7-7.7h2.9A7.8,7.8,0,0,1,209,92.9Z"/><path class="cls-1" d="M172.2,108.2V214.7H118.9a20.5,20.5,0,0,0-41,0H41.1V132.8a24.6,24.6,0,0,1,24.6-24.6Zm-41,49.1a24.6,24.6,0,1,0-24.6,24.6A24.6,24.6,0,0,0,131.2,157.3Z"/><circle class="cls-4" cx="106.6" cy="157.3" r="24.6"/><circle class="cls-2" cx="98.4" cy="214.7" r="20.5"/><rect class="cls-2" x="90.2" y="153.3" width="32.8" height="8.19"/><rect class="cls-2" x="102.5" y="141" width="8.2" height="32.78"/><rect class="cls-4" x="180.4" y="169.6" width="12.3" height="8.19"/><rect class="cls-2" x="168.6" y="108.2" width="8.2" height="106.53"/><path class="cls-3" d="M200.9,206.5H184.5a4.1,4.1,0,0,1-4.1-4.1V186h8.2v12.3h8.5a28.7,28.7,0,0,1,28.3-24.6h16.4v-4.1H250v8.2a4.1,4.1,0,0,1-4.1,4.1H225.4A20.5,20.5,0,0,0,205,202.4,4.1,4.1,0,0,1,200.9,206.5Z"/><path class="cls-4" d="M98.4,239.3A24.6,24.6,0,1,1,123,214.7,24.6,24.6,0,0,1,98.4,239.3Zm0-41a16.4,16.4,0,1,0,16.4,16.4A16.5,16.5,0,0,0,98.4,198.3Z"/><path class="cls-4" d="M237.7,239.3a24.6,24.6,0,1,1,24.6-24.6A24.6,24.6,0,0,1,237.7,239.3Zm0-41a16.4,16.4,0,1,0,16.4,16.4A16.5,16.5,0,0,0,237.7,198.3Z"/><rect class="cls-4" x="197.5" y="66.8" width="4.6" height="11.5"/><rect class="cls-4" x="215.9" y="94.4" width="11.5" height="4.6"/><rect class="cls-4" x="210.9" y="75.5" width="11.4" height="4.6" transform="translate(10.4 180.1) rotate(-46.1)"/><rect class="cls-4" x="172.2" y="94.4" width="11.5" height="4.6"/><rect class="cls-4" x="179.3" y="73.6" width="4.6" height="11.36" transform="translate(-4.3 147.9) rotate(-43.8)"/><rect class="cls-4" x="94.3" y="210.6" width="8.2" height="8.19"/><rect class="cls-4" x="233.6" y="210.6" width="8.2" height="8.19"/></svg>