<?xml version="1.0" encoding="utf-8"?>
<!-- Generator: Adobe Illustrator 24.0.2, SVG Export Plug-In . SVG Version: 6.00 Build 0)  -->
<svg version="1.1" id="Capa_1" xmlns="http://www.w3.org/2000/svg" xmlns:xlink="http://www.w3.org/1999/xlink" x="0px" y="0px"
	 viewBox="0 0 869 233" style="enable-background:new 0 0 869 233;" xml:space="preserve">
<style type="text/css">
	.st0{fill:#FFFFFF;}
</style>
<g>
	<path class="st0" d="M273.84,172.19l3.04-0.01c0.42,4.17,2.98,6.34,7.63,6.33c3.42-0.01,5.86-1.56,5.85-4.63
		c-0.01-3.38-2.97-4.17-7.39-5.12c-4.35-0.96-8.08-2.19-8.09-6.85c-0.01-4.07,3.37-6.52,8.36-6.53c6.18-0.01,8.73,3.12,9.36,7.67
		l-2.93,0.01c-0.46-3.52-2.74-5.27-6.36-5.26c-3.34,0.01-5.55,1.42-5.54,3.98c0.01,2.79,2.77,3.61,6.46,4.33
		c4.8,0.96,9.18,2.12,9.19,7.67c0.01,4.62-3.74,7.22-9.05,7.23C277.44,181.01,274.13,177.15,273.84,172.19"/>
	<path class="st0" d="M303.87,155.82l3.49-0.01l9.16,24.64l-3.38,0.01l-2.64-7.51l-9.83,0.02l-2.64,7.52l-3.17,0.01L303.87,155.82z
		 M309.63,170.42l-2.84-8.27c-0.49-1.38-1.11-3.48-1.11-3.48l-0.07,0c0,0-0.65,2.07-1.13,3.49l-2.91,8.28L309.63,170.42z"/>
	<polygon class="st0" points="319.12,155.78 322.22,155.78 322.27,177.57 335.2,177.54 335.21,180.4 319.17,180.44 	"/>
	<path class="st0" d="M337.15,172.43l-0.03-16.69l3.1-0.01l0.03,16.38c0.01,4.2,2.39,5.99,6.46,5.99c3.89-0.01,6.24-1.81,6.23-6.01
		l-0.03-16.38l3.1-0.01l0.03,16.69c0.01,5.97-4.16,8.35-9.43,8.37C341.24,180.77,337.16,178.4,337.15,172.43"/>
	<path class="st0" d="M360.22,155.7l8.97-0.02c7.41-0.02,10.95,5.01,10.96,12.39c0.02,7.38-3.74,12.25-11.15,12.27l-8.72,0.02
		L360.22,155.7z M368.89,177.61c5.79-0.01,8.09-3.74,8.08-9.54c-0.01-5.79-2.09-9.72-7.88-9.71l-5.76,0.01l0.04,19.24L368.89,177.61
		z"/>
	<path class="st0" d="M388.38,167.95c-0.02-7.38,4.6-12.87,12.04-12.89c7.45-0.02,12.08,5.46,12.09,12.84
		c0.02,7.38-4.59,12.87-12.04,12.89C393.04,180.8,388.4,175.33,388.38,167.95 M409.35,167.91c-0.01-5.79-3.13-10.17-8.92-10.16
		c-5.79,0.01-8.88,4.4-8.87,10.2c0.01,5.79,3.12,10.13,8.92,10.12C406.27,178.05,409.37,173.7,409.35,167.91"/>
	<path class="st0" d="M415.29,167.89c-0.02-7.24,4.32-12.87,11.67-12.89c5.76-0.01,9.25,3.29,9.91,7.84l-3.04,0.01
		c-0.59-3.07-3.04-5.17-6.94-5.16c-5.41,0.01-8.44,4.4-8.43,10.19c0.01,6.04,3.37,10.1,8.51,10.09c4.65-0.01,6.86-3.18,7.15-6.8
		l3.07-0.01c-0.03,2.45-1.2,5.2-2.95,6.93c-1.72,1.69-4.24,2.6-7.38,2.6C419.86,180.71,415.3,175.38,415.29,167.89"/>
	<path class="st0" d="M440.26,172.22l-0.03-16.69l3.1-0.01l0.03,16.38c0.01,4.2,2.39,5.99,6.46,5.99c3.89-0.01,6.24-1.81,6.23-6.01
		l-0.03-16.38l3.1-0.01l0.03,16.69c0.01,5.97-4.16,8.35-9.43,8.37C444.35,180.56,440.28,178.19,440.26,172.22"/>
	<path class="st0" d="M463.33,155.48l10.28-0.02c2.59-0.01,4.59,0.85,5.87,2.37c1.03,1.2,1.66,2.83,1.66,4.69
		c0.01,4.52-2.57,7.25-7.95,7.26l-6.73,0.01l0.02,10.34l-3.1,0.01L463.33,155.48z M472.94,167.26c3.49-0.01,5.14-1.77,5.13-4.6
		c-0.01-2.96-1.84-4.51-4.98-4.51l-6.66,0.01l0.02,9.1L472.94,167.26z"/>
	<path class="st0" d="M489.33,155.43l3.49-0.01l9.16,24.64l-3.38,0.01l-2.64-7.51l-9.83,0.02l-2.64,7.52l-3.17,0.01L489.33,155.43z
		 M495.09,170.04l-2.84-8.27c-0.49-1.38-1.11-3.48-1.11-3.48l-0.07,0c0,0-0.65,2.07-1.13,3.49l-2.91,8.28L495.09,170.04z"/>
	<path class="st0" d="M502.46,167.71c-0.02-7.24,4.32-12.87,11.67-12.89c5.76-0.01,9.25,3.29,9.91,7.84l-3.04,0.01
		c-0.59-3.07-3.04-5.17-6.94-5.16c-5.41,0.01-8.44,4.4-8.43,10.19c0.01,6.04,3.37,10.1,8.51,10.09c4.65-0.01,6.86-3.18,7.15-6.8
		l3.07-0.01c-0.03,2.45-1.2,5.2-2.95,6.93c-1.72,1.69-4.24,2.6-7.38,2.6C507.04,180.53,502.48,175.19,502.46,167.71"/>
	
		<rect x="527.92" y="155.34" transform="matrix(1 -2.084300e-03 2.084300e-03 1 -0.3483 1.1039)" class="st0" width="3.1" height="24.65"/>
	<path class="st0" d="M534.77,167.64c-0.02-7.38,4.6-12.87,12.04-12.89c7.45-0.02,12.08,5.46,12.09,12.84
		c0.02,7.38-4.59,12.87-12.04,12.89C539.42,180.5,534.79,175.02,534.77,167.64 M555.74,167.6c-0.01-5.79-3.13-10.17-8.92-10.16
		c-5.79,0.01-8.88,4.4-8.87,10.2c0.01,5.79,3.12,10.13,8.92,10.12C552.66,177.75,555.75,173.39,555.74,167.6"/>
	<path class="st0" d="M562.58,155.28l3.28-0.01l11.28,17.12c0.83,1.27,1.8,3.16,1.8,3.16l0.07,0l-0.04-20.31l2.9-0.01l0.05,24.65
		l-3.18,0.01l-11.34-17.15c-0.8-1.2-1.84-3.06-1.84-3.06l-0.06,0l0.04,20.24l-2.9,0.01L562.58,155.28z"/>
	<path class="st0" d="M593.58,155.21l3.49-0.01l9.16,24.64l-3.38,0.01l-2.64-7.51l-9.83,0.02l-2.64,7.52l-3.17,0.01L593.58,155.21z
		 M599.33,169.82l-2.84-8.27c-0.49-1.38-1.11-3.48-1.11-3.48l-0.07,0c0,0-0.65,2.07-1.13,3.49l-2.91,8.28L599.33,169.82z"/>
	<polygon class="st0" points="608.82,155.18 611.93,155.17 611.97,176.96 624.91,176.94 624.91,179.8 608.88,179.83 	"/>
	<polygon class="st0" points="640.41,169.32 631.44,155.13 634.89,155.13 641.99,166.84 642.05,166.84 649.21,155.1 652.51,155.09 
		643.51,169.39 643.53,179.76 640.43,179.77 	"/>
	<path class="st0" d="M660.65,155.07l10.28-0.02c2.59-0.01,4.59,0.85,5.87,2.37c1.03,1.2,1.66,2.83,1.66,4.69
		c0.01,4.52-2.57,7.25-7.95,7.26l-6.73,0.01l0.02,10.34l-3.1,0.01L660.65,155.07z M670.26,166.84c3.49-0.01,5.14-1.77,5.13-4.6
		c-0.01-2.96-1.84-4.51-4.98-4.51l-6.66,0.01l0.02,9.1L670.26,166.84z"/>
	<path class="st0" d="M681.45,155.03l11.51-0.02c4.35-0.01,7.28,2.71,7.29,6.74c0.01,3-1.3,5.14-4.27,6.11l0,0.1
		c2.52,0.89,3.32,2.62,3.57,6.27c0.28,3.97,0.7,4.96,1.15,5.28l0,0.14l-3.35,0.01c-0.52-0.45-0.62-1.38-0.91-5.51
		c-0.25-3.62-1.7-4.9-5.01-4.89l-6.86,0.01l0.02,10.41l-3.1,0.01L681.45,155.03z M691.89,166.73c3.45-0.01,5.17-1.74,5.16-4.53
		c-0.01-3-1.39-4.51-5.01-4.51l-7.49,0.02l0.02,9.04L691.89,166.73z"/>
	<polygon class="st0" points="704,154.98 721.41,154.94 721.42,157.67 707.11,157.7 707.13,165.49 720.12,165.47 720.13,168.09 
		707.13,168.11 707.15,176.77 721.87,176.74 721.88,179.6 704.05,179.64 	"/>
	<path class="st0" d="M723.48,154.94l3.35-0.01l6.11,18.34c0.38,1.14,0.97,3.3,0.97,3.3l0.07,0c0,0,0.58-2.21,0.96-3.31l5.96-18.36
		l3.24-0.01l-8.6,24.67l-3.42,0.01L723.48,154.94z"/>
	<polygon class="st0" points="746.8,154.89 764.21,154.86 764.22,157.58 749.91,157.61 749.92,165.4 762.92,165.38 762.93,168 
		749.93,168.03 749.95,176.68 764.67,176.65 764.68,179.51 746.85,179.55 	"/>
	<path class="st0" d="M768.24,154.85l3.28-0.01l11.28,17.12c0.83,1.27,1.8,3.16,1.8,3.16l0.07,0l-0.04-20.31l2.9-0.01l0.05,24.65
		l-3.18,0.01l-11.34-17.15c-0.8-1.2-1.84-3.06-1.84-3.06l-0.06,0l0.04,20.24l-2.9,0.01L768.24,154.85z"/>
	<polygon class="st0" points="798.8,157.51 790.6,157.52 790.59,154.8 810.11,154.76 810.12,157.48 801.91,157.5 801.95,179.43 
		798.85,179.44 	"/>
	
		<rect x="813.27" y="154.75" transform="matrix(1 -2.084300e-03 2.084300e-03 1 -0.3465 1.6987)" class="st0" width="3.1" height="24.65"/>
	<path class="st0" d="M819.07,154.74l3.35-0.01l6.11,18.34c0.38,1.14,0.97,3.3,0.97,3.3l0.07,0c0,0,0.58-2.21,0.96-3.31l5.96-18.36
		l3.24-0.01l-8.6,24.67l-3.42,0.01L819.07,154.74z"/>
	<path class="st0" d="M847.07,154.68l3.49-0.01l9.16,24.64l-3.38,0.01l-2.64-7.51l-9.83,0.02l-2.64,7.52l-3.17,0.01L847.07,154.68z
		 M852.83,169.29l-2.84-8.27c-0.49-1.38-1.11-3.48-1.11-3.48l-0.07,0c0,0-0.65,2.07-1.13,3.49l-2.91,8.28L852.83,169.29z"/>
	<path class="st0" d="M274.84,60.42l22.12-0.05l8.15,29.07c1.22,4.18,3.84,15.14,3.84,15.14l0.19,0c0,0,2.58-10.97,3.69-15.15
		l8.12-29.1l22.3-0.05l0.14,66.45l-15.05,0.03l-0.07-33.46c-0.01-2.69,0.25-13.29,0.25-13.29l-0.18,0c0,0-2.31,9.95-3.04,12.37
		l-9.5,34.41l-13.57,0.03l-9.55-34.27c-0.75-2.41-3.09-12.45-3.09-12.45l-0.19,0c0,0,0.3,10.69,0.3,13.38l0.07,33.37l-14.77,0.03
		L274.84,60.42z"/>
	<path class="st0" d="M349.37,102.83c-0.03-14.22,9.89-25.11,24.39-25.14c6.78-0.01,12.18,2.21,16.28,5.91
		c5.69,5.2,8.49,13.46,8.41,23.13l-34.2,0.07c0.94,6.41,4.49,10.4,10.71,10.39c3.99-0.01,6.59-1.78,7.88-4.76l14.78-0.03
		c-1.01,4.28-3.79,8.37-7.97,11.26c-3.99,2.79-8.82,4.39-14.86,4.4C359.09,128.09,349.4,117.24,349.37,102.83 M383.1,97.74
		c-0.57-5.67-4.11-9.29-9.04-9.28c-5.76,0.01-8.73,3.64-9.74,9.32L383.1,97.74z"/>
	<path class="st0" d="M401.42,102.82c-0.03-14.87,8.5-25.21,20.77-25.23c6.69-0.01,10.51,2.77,13.3,6.76l0.28,0l-0.05-24.26
		l15.14-0.03L451,126.5l-14.49,0.03l-0.01-6.41l-0.19,0c-2.87,4.93-7.79,7.91-14.02,7.93C410.11,128.08,401.45,118.7,401.42,102.82
		 M436.18,102.74c-0.02-7.99-3.28-13.75-9.88-13.74c-6.04,0.01-9.56,5.6-9.55,13.59c0.02,8.27,3.56,13.47,9.42,13.46
		C432.49,116.04,436.19,110.55,436.18,102.74"/>
	<path class="st0" d="M474.12,66.7c0.01,4.74-3.61,8.09-8.35,8.1c-4.74,0.01-8.37-3.33-8.38-8.07c-0.01-4.74,3.61-8.09,8.35-8.1
		C470.47,58.62,474.11,61.96,474.12,66.7 M458.16,78.91l15.14-0.03l0.1,47.58l-15.14,0.03L458.16,78.91z"/>
	<path class="st0" d="M478.46,102.75c-0.03-14.31,9.8-25.21,24.86-25.24c12.92-0.03,21.2,7.49,22.62,18.17l-14.59,0.03
		c-0.94-4.28-3.54-7.06-7.82-7.05c-6.51,0.01-9.75,5.41-9.73,14.06c0.02,8.46,3.28,13.84,9.79,13.83c4.74-0.01,7.62-2.81,8.26-8.2
		l14.5-0.03c-0.35,10.97-9.07,19.54-22.54,19.57C488.46,127.92,478.49,117.06,478.46,102.75"/>
	<path class="st0" d="M529.88,113.05c-0.02-10.5,8.34-13.68,18.18-15c8.92-1.14,12.08-2.07,12.07-5.33c-0.01-3.06-1.96-5.1-6.52-5.1
		c-4.83,0.01-7.25,2.15-7.7,6.15l-13.94,0.03c0.35-8.83,7.12-16.37,21.53-16.4c7.15-0.01,11.99,1.28,15.44,3.87
		c4.09,2.96,6.06,7.61,6.07,13.56l0.05,23.97c0.01,3.81,0.38,5.94,1.69,6.78l0,0.65l-14.68,0.03c-0.75-1.02-1.21-2.88-1.6-5.3
		l-0.18,0c-2.78,4-6.96,6.52-14.11,6.54C536.7,127.53,529.9,122.44,529.88,113.05 M560.54,109.27l-0.01-5.67
		c-1.95,1.02-4.74,1.78-7.8,2.53c-5.85,1.31-8.26,2.8-8.26,6.43c0.01,3.81,2.8,5.29,6.51,5.28
		C556.66,117.83,560.55,114.38,560.54,109.27"/>
	
		<rect x="582.45" y="59.77" transform="matrix(1 -2.084300e-03 2.084300e-03 1 -0.1925 1.2302)" class="st0" width="15.33" height="66.45"/>
	<path class="st0" d="M620.38,59.7l31.79-0.07c13.2-0.03,23.25,6.74,23.27,19.1c0.02,7.71-3.78,13.39-11.49,16.1l0,0.28
		c5.77,1.94,8.75,5.56,9.69,12.16c1.42,8.73,0.5,17.1,2.82,17.92l0,0.84l-15.98,0.03c-1.76-1.02-1.5-8.83-2.54-15.42
		c-0.85-6.13-4.01-9.47-11.08-9.46l-9.94,0.02l0.05,24.91l-16.45,0.03L620.38,59.7z M649.26,89.01c6.51-0.01,9.84-3.08,9.83-8.11
		c-0.01-4.83-3.17-8.26-9.5-8.25l-12.73,0.03l0.03,16.35L649.26,89.01z"/>
	<path class="st0" d="M679.31,102.33c-0.03-14.31,10.17-25.21,25.41-25.24c15.33-0.03,25.39,10.82,25.42,25.14
		c0.03,14.31-9.98,25.21-25.31,25.24C689.58,127.5,679.34,116.64,679.31,102.33 M714.81,102.26c-0.02-8.65-3.56-14.49-10.16-14.48
		c-6.6,0.01-10.02,5.87-10.01,14.52c0.02,8.64,3.47,14.4,10.07,14.38C711.31,116.67,714.83,110.9,714.81,102.26"/>
	<path class="st0" d="M735.21,78.33l14.5-0.03l0.01,6.78l0.27,0c2.97-4.93,7.51-8.2,14.39-8.21c6.22-0.01,10.97,3.23,13.39,8.34
		l0.19,0c3.71-5.77,8.81-8.38,14.95-8.4c10.78-0.02,16.19,7.31,16.21,18l0.06,30.95l-15.15,0.03l-0.06-28.25
		c-0.01-5.11-2.15-8.08-6.71-8.07c-4.83,0.01-7.52,4.01-7.5,9.68l0.06,26.67l-15.14,0.03l-0.06-28.25
		c-0.01-5.11-2.16-8.08-6.71-8.07c-4.74,0.01-7.53,4.01-7.51,9.68l0.06,26.67l-15.14,0.03L735.21,78.33z"/>
	<path class="st0" d="M813.82,112.45c-0.02-10.5,8.34-13.68,18.18-15c8.92-1.14,12.08-2.07,12.07-5.33c-0.01-3.06-1.96-5.1-6.52-5.1
		c-4.83,0.01-7.25,2.15-7.7,6.15l-13.94,0.03c0.35-8.83,7.12-16.37,21.53-16.4c7.15-0.01,11.99,1.28,15.44,3.87
		c4.09,2.96,6.06,7.61,6.07,13.56l0.05,23.97c0.01,3.81,0.38,5.94,1.69,6.78l0,0.65L846,125.68c-0.75-1.02-1.21-2.88-1.6-5.3
		l-0.18,0c-2.78,4-6.96,6.52-14.11,6.54C820.63,126.94,813.84,121.85,813.82,112.45 M844.48,108.68l-0.01-5.67
		c-1.95,1.02-4.74,1.78-7.8,2.53c-5.85,1.31-8.26,2.8-8.26,6.43c0.01,3.81,2.8,5.29,6.51,5.28
		C840.59,117.23,844.49,113.79,844.48,108.68"/>
	<path class="st0" d="M206.77,148.56c-0.06-0.32-2.5-13.66-18.62-11.08c-6.83,1.09-11.75,3.67-17.61,7.62l0.21,0.18l0.65,3.4
		c4.89-2.87,7.63-4.24,10.54-5.09c3.42-0.99,6.27-1.52,8.66,1.12c14.96,16.51-23.92,62.07-79.18,60.37
		c-49.45-1.53-87.63-39.02-89.62-88.18C19.69,64.81,61.7,22.4,111.17,22.3c45.47-0.09,89.48,29.57,92.2,95.35l1.52,0
		c1.41-64.88-48-106.39-99.21-106.28C50.48,11.48,5.83,58.75,5.95,116.95c0.12,58.19,44.99,106.47,100.18,107.9
		C159.87,226.24,213.26,189.24,206.77,148.56"/>
	<path class="st0" d="M111.42,205.1c26.56,0.82,49.34-9.28,64.17-21.83c-0.25-6.62-1.12-20.72-4.07-34.64
		c-0.04,0.02-0.07,0.04-0.11,0.06l-0.65-3.4l-0.21-0.18c0.05-0.04,0.1-0.07,0.15-0.1c-1.32-5.47-2.98-10.8-5.09-15.52
		c-3.94-8.85-9.43-16.13-17.06-19.2c8.71-3.1,14.94-11.43,14.92-21.2c-0.03-12.4-10.1-22.43-22.5-22.41
		c-12.4,0.03-22.43,10.1-22.41,22.5c0.02,9.39,5.81,17.42,14,20.75c-6.24,2.03-11.11,6.49-14.9,12.42
		c7.75,0.67,7.76,4.07,7.78,13.45l0.02,9.05l9.41-0.02c14.68-0.06,13.63,3.17,13.63,11.39l0,0.63c0.02,11.42-2.91,11.42-13.59,11.45
		l-9.41,0.02l0.02,9.07c0.02,10.41-1.24,13.62-11.39,13.64l-0.64,0c-0.57,0-1.11-0.01-1.63-0.04c-0.2-0.01-0.39-0.03-0.59-0.04
		c-0.3-0.02-0.59-0.04-0.87-0.07c-0.24-0.03-0.46-0.06-0.69-0.1c-0.21-0.03-0.42-0.05-0.62-0.09c-0.25-0.05-0.48-0.1-0.69-0.15
		c-0.16-0.04-0.32-0.08-0.47-0.12c-0.23-0.06-0.46-0.14-0.67-0.22c-0.12-0.04-0.23-0.08-0.35-0.13c-0.22-0.1-0.44-0.19-0.64-0.29
		c-0.08-0.05-0.16-0.09-0.24-0.14c-0.21-0.12-0.42-0.24-0.61-0.38c-0.05-0.04-0.09-0.07-0.14-0.11c-0.21-0.15-0.41-0.32-0.59-0.5
		c-2.1-2.07-2.65-5.62-2.64-11.21l-0.02-9.07l-8.72,0.02c-10.41,0.02-13.62-1.24-13.64-11.39l0-0.63
		c-0.02-9.67,3.45-11.45,13.59-11.44l8.72-0.02l-0.02-9.05c-0.05-11.79,2.03-13.43,7.1-13.63c-3.81-10.22-9.6-18.33-18.29-21.76
		c10.99-3.7,18.9-14.1,18.87-26.34c-0.03-15.32-12.48-27.71-27.79-27.68c-15.32,0.03-27.72,12.48-27.69,27.79
		c0.02,11.93,7.57,22.07,18.13,25.97c-25.09,9.43-28.16,60.56-28.53,73.26C60.03,192.31,83.98,204.25,111.42,205.1"/>
</g>
</svg>
